<mxfile host="app.diagrams.net" modified="2023-10-13T10:29:35.622Z" agent="Mozilla/5.0 (Windows NT 10.0; Win64; x64) AppleWebKit/537.36 (KHTML, like Gecko) Chrome/117.0.0.0 Safari/537.36" etag="VR531OPxy1my9xs0n5qb" version="22.0.0" type="github">
  <diagram name="排序" id="qwAmbdf05ej69Gk2fs9i">
    <mxGraphModel dx="1845" dy="532" grid="1" gridSize="10" guides="1" tooltips="1" connect="1" arrows="1" fold="1" page="1" pageScale="1" pageWidth="827" pageHeight="1169" math="0" shadow="0">
      <root>
        <mxCell id="0" />
        <mxCell id="1" parent="0" />
        <mxCell id="d31ktwEh4UAG3ibFD3rj-1" value="基于什么数据结构" style="rounded=0;whiteSpace=wrap;html=1;" vertex="1" parent="1">
          <mxGeometry x="160" y="190" width="120" height="60" as="geometry" />
        </mxCell>
        <mxCell id="d31ktwEh4UAG3ibFD3rj-2" value="信息量" style="rounded=0;whiteSpace=wrap;html=1;" vertex="1" parent="1">
          <mxGeometry x="160" y="290" width="120" height="60" as="geometry" />
        </mxCell>
        <mxCell id="d31ktwEh4UAG3ibFD3rj-4" value="希望的结果是什么?&lt;br&gt;每个元素都在正确的下标位置" style="rounded=0;whiteSpace=wrap;html=1;" vertex="1" parent="1">
          <mxGeometry x="410" y="190" width="260" height="60" as="geometry" />
        </mxCell>
        <mxCell id="d31ktwEh4UAG3ibFD3rj-5" value="如何做呢?&lt;br&gt;移动元素" style="rounded=0;whiteSpace=wrap;html=1;" vertex="1" parent="1">
          <mxGeometry x="410" y="290" width="120" height="60" as="geometry" />
        </mxCell>
        <mxCell id="d31ktwEh4UAG3ibFD3rj-6" value="如何移动,谁在前面?&lt;br&gt;比较,获取信息" style="rounded=0;whiteSpace=wrap;html=1;" vertex="1" parent="1">
          <mxGeometry x="410" y="380" width="120" height="60" as="geometry" />
        </mxCell>
        <mxCell id="d31ktwEh4UAG3ibFD3rj-12" value="" style="edgeStyle=orthogonalEdgeStyle;rounded=0;orthogonalLoop=1;jettySize=auto;html=1;" edge="1" parent="1" source="d31ktwEh4UAG3ibFD3rj-7" target="d31ktwEh4UAG3ibFD3rj-8">
          <mxGeometry relative="1" as="geometry" />
        </mxCell>
        <mxCell id="d31ktwEh4UAG3ibFD3rj-7" value="隐含信息" style="rounded=0;whiteSpace=wrap;html=1;" vertex="1" parent="1">
          <mxGeometry x="160" y="460" width="120" height="60" as="geometry" />
        </mxCell>
        <mxCell id="d31ktwEh4UAG3ibFD3rj-13" style="edgeStyle=orthogonalEdgeStyle;rounded=0;orthogonalLoop=1;jettySize=auto;html=1;entryX=1;entryY=0.5;entryDx=0;entryDy=0;" edge="1" parent="1" source="d31ktwEh4UAG3ibFD3rj-8" target="d31ktwEh4UAG3ibFD3rj-9">
          <mxGeometry relative="1" as="geometry" />
        </mxCell>
        <mxCell id="d31ktwEh4UAG3ibFD3rj-8" value="数学" style="rounded=0;whiteSpace=wrap;html=1;" vertex="1" parent="1">
          <mxGeometry x="10" y="460" width="120" height="60" as="geometry" />
        </mxCell>
        <mxCell id="d31ktwEh4UAG3ibFD3rj-9" value="传递性" style="rounded=0;whiteSpace=wrap;html=1;" vertex="1" parent="1">
          <mxGeometry x="-150" y="410" width="120" height="60" as="geometry" />
        </mxCell>
        <mxCell id="d31ktwEh4UAG3ibFD3rj-10" value="1" style="rounded=0;whiteSpace=wrap;html=1;" vertex="1" parent="1">
          <mxGeometry x="770" y="290" width="120" height="60" as="geometry" />
        </mxCell>
        <mxCell id="d31ktwEh4UAG3ibFD3rj-11" value="冒泡排序&lt;br&gt;(传递性排序)" style="rounded=0;whiteSpace=wrap;html=1;" vertex="1" parent="1">
          <mxGeometry x="770" y="190" width="180" height="60" as="geometry" />
        </mxCell>
        <mxCell id="d31ktwEh4UAG3ibFD3rj-14" value="找第N大排序&lt;br&gt;(首先找第1大的数,放到最后面;&lt;br&gt;在找第2大的数放导数第二个位置)" style="rounded=0;whiteSpace=wrap;html=1;" vertex="1" parent="1">
          <mxGeometry x="770" y="110" width="230" height="60" as="geometry" />
        </mxCell>
        <mxCell id="d31ktwEh4UAG3ibFD3rj-15" value="n+n-1+n-2+...+1= n(n-1)/2 (总是比较这个次数)" style="rounded=0;whiteSpace=wrap;html=1;" vertex="1" parent="1">
          <mxGeometry x="1060" y="110" width="160" height="60" as="geometry" />
        </mxCell>
        <mxCell id="d31ktwEh4UAG3ibFD3rj-16" value="设置一个变量max,用数组的元素和其比较,最后把max放到相应位置" style="rounded=0;whiteSpace=wrap;html=1;" vertex="1" parent="1">
          <mxGeometry x="1300" y="110" width="230" height="60" as="geometry" />
        </mxCell>
        <mxCell id="d31ktwEh4UAG3ibFD3rj-17" value="n+n-1+n-2+...+1= n(n-1)/2 (最坏情况比较这个次数)" style="rounded=0;whiteSpace=wrap;html=1;" vertex="1" parent="1">
          <mxGeometry x="1060" y="190" width="160" height="60" as="geometry" />
        </mxCell>
        <mxCell id="d31ktwEh4UAG3ibFD3rj-21" value="每轮比较可以获得多少信息量?" style="swimlane;fontStyle=0;childLayout=stackLayout;horizontal=1;startSize=26;fillColor=none;horizontalStack=0;resizeParent=1;resizeParentMax=0;resizeLast=0;collapsible=1;marginBottom=0;whiteSpace=wrap;html=1;" vertex="1" parent="1">
          <mxGeometry x="1570" y="280" width="170" height="52" as="geometry" />
        </mxCell>
        <mxCell id="d31ktwEh4UAG3ibFD3rj-22" value="+ field: type" style="text;strokeColor=none;fillColor=none;align=left;verticalAlign=top;spacingLeft=4;spacingRight=4;overflow=hidden;rotatable=0;points=[[0,0.5],[1,0.5]];portConstraint=eastwest;whiteSpace=wrap;html=1;" vertex="1" parent="d31ktwEh4UAG3ibFD3rj-21">
          <mxGeometry y="26" width="170" height="26" as="geometry" />
        </mxCell>
        <mxCell id="d31ktwEh4UAG3ibFD3rj-25" value="总共需要多少信息?" style="swimlane;fontStyle=0;childLayout=stackLayout;horizontal=1;startSize=26;fillColor=none;horizontalStack=0;resizeParent=1;resizeParentMax=0;resizeLast=0;collapsible=1;marginBottom=0;whiteSpace=wrap;html=1;" vertex="1" parent="1">
          <mxGeometry x="1776" y="280" width="140" height="52" as="geometry" />
        </mxCell>
        <mxCell id="d31ktwEh4UAG3ibFD3rj-26" value="n! = n*n-1*n-2*...*1" style="text;strokeColor=none;fillColor=none;align=left;verticalAlign=top;spacingLeft=4;spacingRight=4;overflow=hidden;rotatable=0;points=[[0,0.5],[1,0.5]];portConstraint=eastwest;whiteSpace=wrap;html=1;" vertex="1" parent="d31ktwEh4UAG3ibFD3rj-25">
          <mxGeometry y="26" width="140" height="26" as="geometry" />
        </mxCell>
        <mxCell id="d31ktwEh4UAG3ibFD3rj-27" value="如何计算信息" style="swimlane;fontStyle=0;childLayout=stackLayout;horizontal=1;startSize=26;fillColor=none;horizontalStack=0;resizeParent=1;resizeParentMax=0;resizeLast=0;collapsible=1;marginBottom=0;whiteSpace=wrap;html=1;" vertex="1" parent="1">
          <mxGeometry x="1776" y="370" width="140" height="80" as="geometry" />
        </mxCell>
        <mxCell id="d31ktwEh4UAG3ibFD3rj-28" value="信息是不确定的总和,如果2个元素有n种状态,那么系统信息空间就是n^2" style="text;strokeColor=none;fillColor=none;align=left;verticalAlign=top;spacingLeft=4;spacingRight=4;overflow=hidden;rotatable=0;points=[[0,0.5],[1,0.5]];portConstraint=eastwest;whiteSpace=wrap;html=1;" vertex="1" parent="d31ktwEh4UAG3ibFD3rj-27">
          <mxGeometry y="26" width="140" height="54" as="geometry" />
        </mxCell>
      </root>
    </mxGraphModel>
  </diagram>
</mxfile>
